<svg xmlns="http://www.w3.org/2000/svg" viewBox="0 0 91.12 33.51"><defs><style>.cls-1,.cls-3,.cls-4,.cls-5,.cls-6,.cls-7{fill:none;}.cls-1{stroke:#000;stroke-dasharray:4.74 2.37 4.74 2.37 0.01 2.37;}.cls-1,.cls-3,.cls-5,.cls-6,.cls-7{stroke-linecap:round;stroke-linejoin:round;}.cls-1,.cls-3,.cls-6,.cls-7{stroke-width:0.71px;}.cls-2{font-size:3.35px;font-family:Arial-BoldMT, Arial;font-weight:700;}.cls-3{stroke:#0c3;}.cls-5,.cls-6{stroke:#ff7f00;}.cls-5{stroke-width:0.05px;}.cls-7{stroke:#ff00bf;}</style></defs><title>Asset 20</title><g id="Layer_2" data-name="Layer 2"><g id="TTS_layout_ej_synlig" data-name="TTS layout ej synlig"><g id="LINE"><line class="cls-1" x1="0.49" y1="2.72" x2="28.91" y2="2.72"/></g><g id="LINE-2" data-name="LINE"><line class="cls-1" x1="0.49" y1="9.83" x2="28.91" y2="9.83"/></g><g id="LINE-3" data-name="LINE"><line class="cls-1" x1="0.49" y1="16.93" x2="28.91" y2="16.93"/></g><g id="LINE-4" data-name="LINE"><line class="cls-1" x1="0.49" y1="16.93" x2="28.91" y2="16.93"/></g></g><g id="TTS_layout_synlig" data-name="TTS layout synlig"><g id="MTEXT"><text class="cls-2" transform="translate(36.5 25.11)">Detector-cable</text></g><g id="MTEXT-2" data-name="MTEXT"><text class="cls-2" transform="translate(36.66 3.79)">Induction Loop</text></g><g id="MTEXT-3" data-name="MTEXT"><text class="cls-2" transform="translate(36.66 10.94)">Induction Loop (MC-sensitive)</text></g><g id="MTEXT-4" data-name="MTEXT"><text class="cls-2" transform="translate(36.66 18.04)">Induction Loop (Bicycle-sensitive)</text></g><g id="MTEXT-5" data-name="MTEXT"><text class="cls-2" transform="translate(36.63 32.25)">Signal-cable</text></g></g><g id="Detektorkabel_1" data-name="Detektorkabel 1"><g id="LINE-5" data-name="LINE"><line class="cls-3" x1="0.35" y1="24.04" x2="28.78" y2="24.04"/></g></g><g id="Detektor"><g id="HATCH"><rect class="cls-4" x="0.49" y="7.46" width="9.47" height="4.74"/><path class="cls-5" d="M.49,12,5.07,7.46m0,4.74L9.8,7.46m0,4.74L10,12"/></g><g id="LWPOLYLINE"><rect class="cls-6" x="0.49" y="7.46" width="9.47" height="4.74"/></g><g id="HATCH-2" data-name="HATCH"><rect class="cls-4" x="0.49" y="14.57" width="9.47" height="4.74"/><path class="cls-5" d="M.49,15.83l1.27-1.26M.49,18.45l3.88-3.88M2.25,19.3,7,14.57M4.86,19.3,9.6,14.57M7.47,19.3,10,16.81M.49,16.07,2,14.57M.49,18.68l4.12-4.11M2.48,19.3l4.74-4.73M5.1,19.3l4.73-4.73M7.71,19.3,10,17.05"/></g><g id="LWPOLYLINE-2" data-name="LWPOLYLINE"><rect class="cls-6" x="0.49" y="14.57" width="9.47" height="4.74"/></g><g id="LWPOLYLINE-3" data-name="LWPOLYLINE"><rect class="cls-6" x="0.49" y="0.35" width="9.47" height="4.74"/></g></g><g id="Signalkabel_1" data-name="Signalkabel 1"><g id="LINE-6" data-name="LINE"><line class="cls-7" x1="0.35" y1="31.14" x2="28.78" y2="31.14"/></g></g></g></svg>